<svg id="Layer_1" data-name="Layer 1" xmlns="http://www.w3.org/2000/svg" viewBox="0 0 849.97 849.98"><title>Pepsi logo - Brandlogos.net</title><path d="M425,0C190.36,0,0,190.37,0,425S190.36,850,425,850,850,659.61,850,425,659.6,0,425,0Zm0,16c226,0,409,183,409,409s-183,409-409,409S16,651,16,425,199,16,425,16Z" transform="translate(0 0)"/><ellipse cx="424.53" cy="424.99" rx="409.46" ry="408.96" style="fill:#f8ffff"/><path d="M625.94,342.16c-44.57,0-70.28,20.8-70.28,49.24,0,60.85,97.38,44.75,97.38,66.62,0,8.11-11.65,11.08-21.66,11.08-18.23,0-35.64-4.94-43.2-18L545,467.35s8,39.52,84.93,39.52c48.82,0,75.18-20.78,75.18-51,0-58.42-96.95-43.44-96.95-64.5,0-7,12-10.71,19.38-10.71,28.24,0,30.45,16.86,30.45,16.86l43.86-16.94c-4.29-12.94-14.58-38.41-75.94-38.41Zm149.46,1.12L721,362.82V501.69H775.4ZM159.82,346h-88V501.69h54.37V472.45L171.53,455c40.89-15.72,50.11-31.17,50.33-58.5.36-48-48.24-50.54-62-50.54Zm324.27,0h-88V501.69h54.37V472.45L495.8,455c40.89-15.72,50.11-31.17,50.33-58.5.37-48-48.24-50.54-62-50.54Zm-247,0V501.69H374.47V462.75h-83V442.66h64.31V405.1h-64.3V384.93h82.22V346Zm-110.9,39h21.4c10.85,0,19.83,4.15,19.83,16.12s-9.94,17.94-14.09,19.62l-27.15,11Zm324.27,0h21.4c10.85,0,19.84,4.15,19.84,16.12S481.8,419,477.64,420.67l-27.15,11Z" transform="translate(0 0)"/><path d="M615.66,550c-111.59,0-261.71,47.63-386.21,47.63-107.1,0-152.12-20.4-153.52-21a380.45,380.45,0,0,0,697.4.57c-1.12-.4-75.41-27.16-157.67-27.16Z" transform="translate(0 0)" style="fill:#0f0e96"/><path d="M233.85,300c115,0,261.71-47.64,386.21-47.64,102.11,0,152.49,21.25,153.89,21.9C713.56,135.54,576.2,44.92,424.75,44.83c-151.22.1-288.81,90.29-349.33,228.71,1.12.4,74.88,26.46,158.44,26.46Z" transform="translate(0 0)" style="fill:#ff1400"/></svg>